<svg width="25" height="25" viewBox="0 0 25 25" fill="none" xmlns="http://www.w3.org/2000/svg">
<path d="M12.7846 7.27661C11.4748 7.27661 10.2185 7.79696 9.29228 8.72319C8.36605 9.64942 7.8457 10.9057 7.8457 12.2155C7.8457 13.5254 8.36605 14.7817 9.29228 15.7079C10.2185 16.6341 11.4748 17.1545 12.7846 17.1545C14.0945 17.1545 15.3508 16.6341 16.277 15.7079C17.2032 14.7817 17.7236 13.5254 17.7236 12.2155C17.7236 10.9057 17.2032 9.64942 16.277 8.72319C15.3508 7.79696 14.0945 7.27661 12.7846 7.27661Z" fill="#161313"/>
<path fill-rule="evenodd" clip-rule="evenodd" d="M12.7846 1.34985C13.0466 1.34985 13.2978 1.45392 13.4831 1.63917C13.6683 1.82442 13.7724 2.07566 13.7724 2.33764V3.32543C13.7724 3.58741 13.6683 3.83865 13.4831 4.0239C13.2978 4.20915 13.0466 4.31322 12.7846 4.31322C12.5226 4.31322 12.2714 4.20915 12.0861 4.0239C11.9009 3.83865 11.7968 3.58741 11.7968 3.32543V2.33764C11.7968 2.07566 11.9009 1.82442 12.0861 1.63917C12.2714 1.45392 12.5226 1.34985 12.7846 1.34985ZM4.18394 3.61485C4.36918 3.42967 4.62038 3.32564 4.88231 3.32564C5.14423 3.32564 5.39544 3.42967 5.58067 3.61485L7.06235 5.09653C7.24229 5.28283 7.34185 5.53235 7.3396 5.79134C7.33735 6.05034 7.23346 6.29809 7.05032 6.48123C6.86718 6.66437 6.61943 6.76826 6.36043 6.77051C6.10144 6.77276 5.85192 6.67319 5.66562 6.49326L4.18394 5.01158C3.99876 4.82634 3.89473 4.57514 3.89473 4.31322C3.89473 4.05129 3.99876 3.80009 4.18394 3.61485ZM21.3853 3.61485C21.5705 3.80009 21.6745 4.05129 21.6745 4.31322C21.6745 4.57514 21.5705 4.82634 21.3853 5.01158L19.9036 6.49326C19.8125 6.58761 19.7035 6.66286 19.583 6.71463C19.4624 6.7664 19.3328 6.79364 19.2017 6.79478C19.0705 6.79592 18.9404 6.77093 18.819 6.72126C18.6976 6.6716 18.5874 6.59825 18.4946 6.50551C18.4019 6.41276 18.3285 6.30247 18.2789 6.18108C18.2292 6.05968 18.2042 5.92961 18.2053 5.79845C18.2065 5.66729 18.2337 5.53768 18.2855 5.41716C18.3373 5.29665 18.4125 5.18765 18.5069 5.09653L19.9885 3.61485C20.1738 3.42967 20.425 3.32564 20.6869 3.32564C20.9488 3.32564 21.2 3.42967 21.3853 3.61485ZM1.91895 12.2155C1.91895 11.9535 2.02302 11.7023 2.20826 11.517C2.39351 11.3318 2.64476 11.2277 2.90673 11.2277H3.89452C4.1565 11.2277 4.40775 11.3318 4.59299 11.517C4.77824 11.7023 4.88231 11.9535 4.88231 12.2155C4.88231 12.4775 4.77824 12.7287 4.59299 12.914C4.40775 13.0992 4.1565 13.2033 3.89452 13.2033H2.90673C2.64476 13.2033 2.39351 13.0992 2.20826 12.914C2.02302 12.7287 1.91895 12.4775 1.91895 12.2155ZM20.6869 12.2155C20.6869 11.9535 20.791 11.7023 20.9762 11.517C21.1615 11.3318 21.4127 11.2277 21.6747 11.2277H22.6625C22.9245 11.2277 23.1757 11.3318 23.361 11.517C23.5462 11.7023 23.6503 11.9535 23.6503 12.2155C23.6503 12.4775 23.5462 12.7287 23.361 12.914C23.1757 13.0992 22.9245 13.2033 22.6625 13.2033H21.6747C21.4127 13.2033 21.1615 13.0992 20.9762 12.914C20.791 12.7287 20.6869 12.4775 20.6869 12.2155ZM7.06235 17.9378C7.24754 18.123 7.35156 18.3742 7.35156 18.6361C7.35156 18.8981 7.24754 19.1493 7.06235 19.3345L5.58067 20.8162C5.39437 20.9961 5.14486 21.0957 4.88586 21.0934C4.62687 21.0912 4.37912 20.9873 4.19597 20.8041C4.01283 20.621 3.90895 20.3733 3.9067 20.1143C3.90444 19.8553 4.00401 19.6057 4.18394 19.4194L5.66562 17.9378C5.85086 17.7526 6.10206 17.6486 6.36399 17.6486C6.62591 17.6486 6.87712 17.7526 7.06235 17.9378ZM18.5069 17.9378C18.6921 17.7526 18.9433 17.6486 19.2052 17.6486C19.4671 17.6486 19.7184 17.7526 19.9036 17.9378L21.3853 19.4194C21.5652 19.6057 21.6648 19.8553 21.6625 20.1143C21.6603 20.3733 21.5564 20.621 21.3732 20.8041C21.1901 20.9873 20.9423 21.0912 20.6833 21.0934C20.4244 21.0957 20.1748 20.9961 19.9885 20.8162L18.5069 19.3345C18.3217 19.1493 18.2176 18.8981 18.2176 18.6361C18.2176 18.3742 18.3217 18.123 18.5069 17.9378ZM12.7846 20.1178C13.0466 20.1178 13.2978 20.2219 13.4831 20.4071C13.6683 20.5924 13.7724 20.8436 13.7724 21.1056V22.0934C13.7724 22.3554 13.6683 22.6066 13.4831 22.7919C13.2978 22.9771 13.0466 23.0812 12.7846 23.0812C12.5226 23.0812 12.2714 22.9771 12.0861 22.7919C11.9009 22.6066 11.7968 22.3554 11.7968 22.0934V21.1056C11.7968 20.8436 11.9009 20.5924 12.0861 20.4071C12.2714 20.2219 12.5226 20.1178 12.7846 20.1178Z" fill="#161313"/>
</svg>
