<svg width="25" height="25" viewBox="0 0 25 25" fill="none" xmlns="http://www.w3.org/2000/svg">
<g clip-path="url(#clip0_106_171)">
<path d="M9.25215 0.911879C9.39678 1.08763 9.48538 1.30271 9.50651 1.52933C9.52765 1.75595 9.48033 1.98371 9.37068 2.18316C8.51406 3.75593 8.0667 5.51886 8.06977 7.30978C8.06977 13.2676 12.9267 18.092 18.9127 18.092C19.6936 18.092 20.4537 18.0105 21.1841 17.8549C21.408 17.8064 21.6413 17.825 21.8547 17.9082C22.0682 17.9915 22.2524 18.1358 22.3843 18.3231C22.5235 18.5179 22.5945 18.7532 22.5862 18.9925C22.5779 19.2318 22.4908 19.4616 22.3384 19.6463C21.1762 21.0738 19.7102 22.2239 18.0472 23.0129C16.3841 23.8019 14.5659 24.2098 12.7252 24.2069C5.89466 24.2069 0.362061 18.7039 0.362061 11.9237C0.362061 6.82082 3.49433 2.44394 7.95419 0.588873C8.17635 0.494981 8.42298 0.475711 8.65703 0.533955C8.89108 0.5922 9.09991 0.724815 9.25215 0.911879Z" fill="white"/>
</g>
<defs>
<clipPath id="clip0_106_171">
<rect width="23.7069" height="23.7069" fill="white" transform="translate(0.362061 0.5)"/>
</clipPath>
</defs>
</svg>
